<svg width="24" height="24" viewBox="0 0 24 24" fill="none" xmlns="http://www.w3.org/2000/svg">
<g id="icon_menu_2">
<path id="Vector" d="M10.4996 0L10.5266 0.00859079L10.604 0.0355901C11.5404 0.362037 18.3911 3.01289 16.7379 10.1886C16.7379 10.1886 17.624 9.50992 18.5113 8.15136C18.5113 8.15136 22.5 11.3213 22.5 15.8486C22.5 19.0186 19.8405 21.7357 14.5227 24H13.8759C15.6493 21.4338 15.723 19.3205 14.0968 17.6601C10.5537 14.2643 12.1049 12 12.1049 12C12.1049 12 8.35191 13.8212 7.6229 17.2158C7.23017 19.0358 7.71127 21.3111 10.1106 24H9.75101C5.25057 22.5003 1.5 19.5279 1.5 14.9994C1.5 6.53876 9.88846 7.95132 10.5009 0H10.4996Z" fill="white"/>
</g>
</svg>
