<svg width="24" height="24" viewBox="0 0 24 24" fill="none" xmlns="http://www.w3.org/2000/svg">
<g id="icon_24_twiiter">
<path id="Vector" d="M10.9335 9.34634L5.42677 3.08138H2.57478L9.62244 11.1017L9.66659 11.1519L9.62584 11.205L2.16512 20.9186H8.2879L12.6328 15.1991L12.6931 15.1198L12.7588 15.1946L17.788 20.9186H20.6381L14.0568 13.4291L14.0129 13.3791L14.0531 13.3262L21.836 3.08138H15.8685L11.0591 9.34219L10.9988 9.4207L10.9335 9.34634ZM16.6103 4.77811L16.6347 4.74631H16.6748H18.3742H18.5382L18.439 4.87692L7.46971 19.3175L7.44528 19.3497H7.4049H5.58133H5.41619L5.51679 19.2187L16.6103 4.77811Z" fill="white" stroke="white" stroke-width="0.16276"/>
</g>
</svg>
