<svg width="24" height="24" viewBox="0 0 24 24" fill="none" xmlns="http://www.w3.org/2000/svg">
<g id="icon_32_telegram">
<path id="Vector" d="M19.777 20.6172L19.7675 20.6617L19.7678 20.6614C19.6391 21.1956 19.4137 21.5257 19.1103 21.6627C18.7985 21.8035 18.3992 21.7427 17.9273 21.4801L12.7532 17.692L12.744 17.6853L12.7358 17.6931L10.2416 20.0812L10.2414 20.0814C10.103 20.2198 9.97702 20.3448 9.81987 20.4357C9.66607 20.5245 9.48177 20.5809 9.22612 20.5829L9.59433 15.3668L19.1768 6.76006C19.1768 6.76005 19.1768 6.76003 19.1768 6.76001C19.2815 6.66739 19.3311 6.58232 19.3334 6.51131C19.3357 6.43828 19.2881 6.38522 19.2123 6.35802C19.1368 6.33097 19.0315 6.32837 18.9108 6.35521C18.7899 6.38209 18.6527 6.4387 18.5129 6.53132C18.5128 6.53136 18.5128 6.53139 18.5127 6.53143L6.66666 13.945L1.56733 12.3626L1.56354 12.3749L1.56733 12.3626C1.29125 12.277 1.08394 12.166 0.949094 12.0401C0.814443 11.9145 0.752625 11.7748 0.765114 11.6307C0.77764 11.4862 0.865174 11.3342 1.03582 11.1848C1.20639 11.0356 1.45896 10.89 1.79885 10.7584L21.7584 3.11211C21.7584 3.1121 21.7585 3.11209 21.7585 3.11208C22.2173 2.94135 22.6444 2.99378 22.9197 3.25889C23.1951 3.52418 23.3227 4.00642 23.1731 4.70434L19.777 20.6172Z" fill="white" stroke="white" stroke-width="0.0270735"/>
</g>
</svg>
