<svg width="24" height="24" viewBox="0 0 24 24" fill="none" xmlns="http://www.w3.org/2000/svg">
<g id="icon_menu_3">
<path id="Vector" d="M20.281 3H3.71904C2.49821 3 1.5 4.0006 1.5 5.22434V20.2757C1.5 21.4994 2.49821 22.5 3.71904 22.5H20.281C21.5018 22.5 22.5 21.4994 22.5 20.2757V5.22434C22.5 4.0006 21.5018 3 20.281 3ZM18.4626 10.683L16.5388 15.3126C16.8622 15.6273 17.0637 16.0689 17.0637 16.5575C17.0637 17.5181 16.2881 18.2956 15.3297 18.2956C14.3713 18.2956 13.5957 17.5181 13.5957 16.5575C13.5957 16.3296 13.6403 16.1112 13.7199 15.9115L10.184 12.3671C10.0457 12.4024 9.90047 12.4212 9.7505 12.4212C9.52087 12.4212 9.30295 12.3765 9.10143 12.2943L7.26199 14.3942C7.2948 14.5281 7.31355 14.669 7.31355 14.8146C7.31355 15.7753 6.53794 16.5528 5.57956 16.5528C4.62118 16.5528 3.84557 15.7753 3.84557 14.8146C3.84557 13.854 4.62118 13.0765 5.57956 13.0765C5.91698 13.0765 6.23332 13.1728 6.4981 13.3419L8.18054 11.4206C8.0751 11.1951 8.01651 10.9461 8.01651 10.6807C8.01651 9.72001 8.79212 8.94254 9.7505 8.94254C10.7089 8.94254 11.4845 9.72001 11.4845 10.6807C11.4845 11.0213 11.3861 11.3384 11.2174 11.6061L14.5846 14.9814C14.8095 14.8733 15.0603 14.8146 15.3274 14.8146H15.3696L17.2699 10.2414C16.9114 9.92201 16.6841 9.45929 16.6841 8.9402C16.6841 7.97952 17.4597 7.20206 18.4181 7.20206C19.3765 7.20206 20.1521 7.97952 20.1521 8.9402C20.1544 9.89147 19.3999 10.6595 18.4626 10.683Z" fill="white"/>
</g>
</svg>
