<svg width="24" height="24" viewBox="0 0 24 24" fill="none" xmlns="http://www.w3.org/2000/svg">
<g id="icon_menu_1">
<path id="Vector" d="M19.08 22.4999C19.5119 22.1268 19.856 21.8172 20.1119 21.5709C20.3681 21.3246 20.5642 21.1157 20.7 20.9441C20.836 20.7724 20.92 20.6268 20.9519 20.5074C20.9839 20.3881 21 20.2835 21 20.194V19.8358H17.448C17.288 19.8358 17.1481 19.8917 17.0281 20.0037C16.9081 20.1157 16.808 20.2463 16.7281 20.3955C16.648 20.5448 16.588 20.6978 16.5481 20.8545C16.508 21.0111 16.488 21.1344 16.488 21.2239V24H16.56C16.688 24 16.82 23.9813 16.9559 23.944C17.092 23.9068 17.248 23.8358 17.424 23.7313C17.6 23.6269 17.82 23.4776 18.084 23.2835C18.348 23.0895 18.68 22.8283 19.08 22.5V22.4999ZM14.976 21.2015C14.976 20.903 15.024 20.5933 15.12 20.2724C15.216 19.9514 15.368 19.6529 15.576 19.3769C15.784 19.1008 16.048 18.8732 16.368 18.694C16.688 18.5149 17.064 18.4254 17.496 18.4254H21V5.79851C21 5.36562 20.908 4.97754 20.724 4.63429C20.54 4.29104 20.2961 3.99991 19.992 3.76118C19.688 3.5223 19.352 3.33582 18.984 3.20146C18.6161 3.0671 18.2561 3 17.904 3H6.096C5.79199 3 5.46001 3.08211 5.09999 3.24618C4.74 3.41037 4.40403 3.62684 4.09195 3.89554C3.77999 4.16413 3.51996 4.4701 3.31193 4.81335C3.10396 5.15674 3 5.51485 3 5.88803V21.112C3 21.4254 3.07604 21.75 3.22806 22.0859C3.38004 22.4217 3.58808 22.7314 3.85194 23.015C4.11596 23.2985 4.41597 23.5335 4.75192 23.7202C5.08807 23.9067 5.43996 24 5.80808 24H14.976V21.2015ZM16.4881 7.23134C16.9039 7.23134 17.256 7.3694 17.544 7.64552C17.832 7.92155 17.976 8.25365 17.976 8.64176C17.976 9.02987 17.8319 9.35822 17.544 9.62681C17.256 9.89551 16.9039 10.0298 16.4881 10.0298H7.48801C7.07201 10.0298 6.71997 9.89548 6.43194 9.62681C6.144 9.35819 5.99997 9.02982 5.99997 8.64176C5.99997 8.25371 6.144 7.92158 6.43194 7.64554C6.71997 7.36942 7.07201 7.23134 7.48801 7.23134H16.4881ZM17.976 14.2164C17.976 14.6045 17.832 14.9366 17.544 15.2127C17.256 15.4888 16.904 15.6269 16.4881 15.6269H7.48805C7.07204 15.6269 6.72 15.4888 6.43197 15.2127C6.14403 14.9366 5.99999 14.6045 5.99999 14.2164C5.99999 13.8284 6.14403 13.5 6.43197 13.2313C6.72 12.9627 7.07204 12.8284 7.48805 12.8284H16.4881C16.904 12.8284 17.256 12.9627 17.544 13.2313C17.832 13.5 17.976 13.8284 17.976 14.2164H17.976Z" fill="white"/>
</g>
</svg>
